<svg id="Calque_1" data-name="Calque 1" xmlns="http://www.w3.org/2000/svg" viewBox="0 0 527.85 148.34"><defs><style>.cls-1{fill:#f2f2f2;}.cls-2{fill:#ff5cae;}</style></defs><g id="Calque_1-2" data-name="Calque 1"><path class="cls-1" d="M91.17,8.1V147.85H57.83v-5.19c-4.79,4.39-10.58,7.39-17.37,7.39-24.36,0-34.54-12-34.54-49.31V90c0-37.33,10.18-49.11,34.54-49.11a26.29,26.29,0,0,1,16,5.59V8.1ZM55.63,92.15c0-21.56-1.2-26.35-7-26.35s-6.79,4.79-6.79,26.35v6.39c0,21.56,1,26.35,6.79,26.35s7-4.79,7-26.35Z" transform="translate(-5.92 -1.71)"/><path class="cls-1" d="M186.79,100.93c0,37.13-19,49.11-43.32,49.11-24.56,0-43.32-12-43.32-49.11V90c0-37.13,18.77-49.11,43.32-49.11,24.36,0,43.32,12,43.32,49.11Zm-34.14-8.38c0-19.56-1.6-25.35-9.18-25.35s-9.18,5.79-9.18,25.35v5.79c0,19.57,1.6,25.35,9.18,25.35s9.18-5.79,9.18-25.35Z" transform="translate(-5.92 -1.71)"/><path class="cls-1" d="M228.7,40.46C240.28,40.46,253,46,253,46l0,22.23s-7.86-3.41-14.85-3c-7.19.4-9.18,3.19-9.18,6.79-.2,3.79,3.79,7,7.79,11.78,10.58,12.18,19.56,21.36,18.77,37.53-1.2,24.36-22.16,28.35-35.34,28.35-12.18,0-25.15-4.39-25.15-4.39V121.12s5.59,3,14.57,3c4.79.2,9,0,10.18-4.79,1.6-5.39-2-9.58-13-20.56-10-10.18-14.17-20.76-12.38-34.14C197,44.65,216.92,40.46,228.7,40.46Z" transform="translate(-5.92 -1.71)"/><path class="cls-1" d="M306,112.11c0,9.18,3.94,10.38,16.35,7.79v27.15q-8.56,3-20.69,3c-24.83,0-30.15-13-30.15-47.51V70.58H259.88V43H271.5V20.67H306V43h11.66V68.6H306S306,108.72,306,112.11Z" transform="translate(-5.92 -1.71)"/><path class="cls-1" d="M391,40.84V74.58a42.73,42.73,0,0,0-10.78-1.4c-7.19,0-16.37,1.4-16.37,16.37v58.29H329.13V43h34.74v7.59A41,41,0,0,1,391,40.84Z" transform="translate(-5.92 -1.71)"/><path class="cls-1" d="M399,52.92,434,43V147.85H399Z" transform="translate(-5.92 -1.71)"/><path class="cls-1" d="M482.06,109.32h-3.19v38.53H443.93V8.1h34.94V81.57h3L495.63,43h35.54L511.61,95.15l22.16,52.7H497Z" transform="translate(-5.92 -1.71)"/><path class="cls-2" d="M398.7,19.28a17.47,17.47,0,1,1,34.94,0,17.47,17.47,0,0,1-34.94,0Z" transform="translate(-5.92 -1.71)"/></g></svg>