<?xml version="1.0" encoding="utf-8"?>
<!-- Generator: Adobe Illustrator 25.2.2, SVG Export Plug-In . SVG Version: 6.00 Build 0)  -->
<svg version="1.1" id="Calque_1" xmlns="http://www.w3.org/2000/svg" xmlns:xlink="http://www.w3.org/1999/xlink" x="0px" y="0px"
	 viewBox="0 0 527.8 148.3" style="enable-background:new 0 0 527.8 148.3;" xml:space="preserve">
<style type="text/css">
	.st0{fill:#353535;}
	.st1{fill:#FF5CAE;}
</style>
<g id="Calque_1-2">
	<path class="st0" d="M85.2,6.4v139.8H51.9v-5.2c-4.8,4.4-10.6,7.4-17.4,7.4C10.2,148.3,0,136.3,0,99V88.3C0,51,10.2,39.2,34.5,39.2
		c5.8,0,11.4,2,16,5.6V6.4H85.2z M49.7,90.4c0-21.6-1.2-26.3-7-26.3c-5.8,0-6.8,4.8-6.8,26.3v6.4c0,21.6,1,26.3,6.8,26.3
		s7-4.8,7-26.3V90.4z"/>
	<path class="st0" d="M180.9,99.2c0,37.1-19,49.1-43.3,49.1c-24.6,0-43.3-12-43.3-49.1V88.3c0-37.1,18.8-49.1,43.3-49.1
		c24.4,0,43.3,12,43.3,49.1L180.9,99.2z M146.7,90.8c0-19.6-1.6-25.3-9.2-25.3s-9.2,5.8-9.2,25.3v5.8c0,19.6,1.6,25.3,9.2,25.3
		s9.2-5.8,9.2-25.3V90.8z"/>
	<path class="st0" d="M222.8,38.8c11.6,0,24.3,5.5,24.3,5.5v22.2c0,0-7.9-3.4-14.9-3c-7.2,0.4-9.2,3.2-9.2,6.8
		c-0.2,3.8,3.8,7,7.8,11.8c10.6,12.2,19.6,21.4,18.8,37.5c-1.2,24.4-22.2,28.3-35.3,28.3c-12.2,0-25.1-4.4-25.1-4.4v-24.2
		c0,0,5.6,3,14.6,3c4.8,0.2,9,0,10.2-4.8c1.6-5.4-2-9.6-13-20.6c-10-10.2-14.2-20.8-12.4-34.1C191.1,42.9,211,38.8,222.8,38.8z"/>
	<path class="st0" d="M300.1,110.4c0,9.2,3.9,10.4,16.4,7.8v27.1c-5.7,2-12.6,3-20.7,3c-24.8,0-30.1-13-30.1-47.5v-32H254V41.3h11.6
		V19h34.5v22.3h11.7v25.6h-11.7C300.1,66.9,300.1,107,300.1,110.4z"/>
	<path class="st0" d="M385.1,39.1v33.7c-3.5-0.9-7.1-1.4-10.8-1.4c-7.2,0-16.4,1.4-16.4,16.4v58.3h-34.7V41.3h34.7v7.6
		C365.5,42.5,375.2,39,385.1,39.1z"/>
	<path class="st0" d="M393.1,51.2l35-9.9v104.8h-35V51.2z"/>
	<path class="st0" d="M476.1,107.6h-3.2v38.5H438V6.4h34.9v73.5h3l13.8-38.6h35.5l-19.6,52.2l22.2,52.7h-36.8L476.1,107.6z"/>
	<path class="st1" d="M392.8,17.6c0-9.6,7.8-17.5,17.5-17.5s17.5,7.8,17.5,17.5S419.9,35,410.2,35S392.8,27.2,392.8,17.6z"/>
</g>
</svg>
